<svg width="28" height="28" viewBox="0 0 20 20" fill="none" xmlns="http://www.w3.org/2000/svg">
  <path d="M0 4C0 1.79086 1.79086 0 4 0H16C18.2091 0 20 1.79086 20 4V16C20 18.2091 18.2091 20 16 20H4C1.79086 20 0 18.2091 0 16V4Z" fill="var(--color-icon-bg)" />
  <path fill-rule="evenodd" clip-rule="evenodd" d="M7.18773 8.10983C7.33418 7.96339 7.57162 7.96339 7.71807 8.10983L9.22429 9.61606C9.39754 9.78927 9.50361 10.0131 9.50361 10.2578C9.50361 10.5024 9.39754 10.7263 9.22431 10.8995L7.71807 12.4058C7.57162 12.5522 7.33418 12.5522 7.18773 12.4058C7.04129 12.2593 7.04129 12.0219 7.18773 11.8754L8.41632 10.6469H6.25994C6.11642 10.9679 5.79424 11.1916 5.4198 11.1916C4.91179 11.1916 4.5 10.7799 4.5 10.2719C4.5 9.76384 4.91179 9.35205 5.4198 9.35205C5.79424 9.35205 6.11642 9.57578 6.25994 9.89685H8.44442L7.18773 8.64017C7.04129 8.49372 7.04129 8.25628 7.18773 8.10983ZM12.7954 8.17688C12.9419 8.32333 12.9419 8.56077 12.7954 8.70722L11.6058 9.89685H13.7817C13.9252 9.57578 14.2474 9.35205 14.6218 9.35205C15.1298 9.35205 15.5416 9.76384 15.5416 10.2719C15.5416 10.7799 15.1298 11.1916 14.6218 11.1916C14.2474 11.1916 13.9252 10.9679 13.7817 10.6469H11.4998L12.7954 11.9425C12.9419 12.0889 12.9419 12.3264 12.7954 12.4728C12.649 12.6193 12.4115 12.6193 12.2651 12.4728L10.7589 10.9666C10.7589 10.9666 10.7589 10.9666 10.7589 10.9666C10.5856 10.7934 10.4795 10.5695 10.4795 10.3249C10.4795 10.0802 10.5856 9.85636 10.7588 9.68314L12.2651 8.17689C12.4115 8.03044 12.649 8.03044 12.7954 8.17688ZM5.4198 10.102C5.32601 10.102 5.25 10.1781 5.25 10.2719C5.25 10.3656 5.32601 10.4416 5.4198 10.4416C5.51359 10.4416 5.5896 10.3656 5.5896 10.2719C5.5896 10.1781 5.51359 10.102 5.4198 10.102ZM14.6218 10.102C14.528 10.102 14.452 10.1781 14.452 10.2719C14.452 10.3656 14.528 10.4416 14.6218 10.4416C14.7156 10.4416 14.7916 10.3656 14.7916 10.2719C14.7916 10.1781 14.7156 10.102 14.6218 10.102Z" fill="var(--color-icon-fg)" />
</svg>
