<svg width="28" height="28" viewBox="0 0 20 20" fill="none" xmlns="http://www.w3.org/2000/svg">
  <path d="M0 4C0 1.79086 1.79086 0 4 0H16C18.2091 0 20 1.79086 20 4V16C20 18.2091 18.2091 20 16 20H4C1.79086 20 0 18.2091 0 16V4Z" fill="var(--color-icon-bg)" />
  <path fill-rule="evenodd" clip-rule="evenodd" d="M5.125 6.375C5.125 5.96079 5.46079 5.625 5.875 5.625H7.625C8.03921 5.625 8.375 5.96079 8.375 6.375V6.625H11.625V6.375C11.625 5.96079 11.9608 5.625 12.375 5.625H14.125C14.5392 5.625 14.875 5.96079 14.875 6.375V8.125C14.875 8.53921 14.5392 8.875 14.125 8.875H13.875V12.125H14.125C14.5392 12.125 14.875 12.4608 14.875 12.875V14.625C14.875 15.0392 14.5392 15.375 14.125 15.375H12.375C11.9608 15.375 11.625 15.0392 11.625 14.625V14.375H8.375V14.625C8.375 15.0392 8.03921 15.375 7.625 15.375H5.875C5.46079 15.375 5.125 15.0392 5.125 14.625V12.875C5.125 12.4608 5.46079 12.125 5.875 12.125H6.125V8.875H5.875C5.46079 8.875 5.125 8.53921 5.125 8.125V6.375ZM6.875 8.875V12.125H7.625C7.68994 12.125 7.75302 12.1333 7.8132 12.1489L9.46208 10.5L7.8132 8.85112C7.75302 8.8667 7.68994 8.875 7.625 8.875H6.875ZM8.34791 8.32517L9.99241 9.96967L11.6489 8.3132C11.6333 8.25302 11.625 8.18994 11.625 8.125V7.375H8.375V8.125C8.375 8.19428 8.36555 8.26142 8.34791 8.32517ZM12.1748 8.84791L10.5227 10.5L12.1748 12.1521C12.2386 12.1344 12.3057 12.125 12.375 12.125H13.125V8.875H12.375C12.3057 8.875 12.2386 8.86555 12.1748 8.84791ZM11.6489 12.6868L9.99241 11.0303L8.34791 12.6748C8.36555 12.7386 8.375 12.8057 8.375 12.875V13.625H11.625V12.875C11.625 12.8101 11.6333 12.747 11.6489 12.6868ZM7.625 6.375L5.875 6.375V8.125H7.625V6.375ZM14.125 6.375L12.375 6.375V8.125H14.125V6.375ZM5.875 12.875V14.625H7.625V12.875H5.875ZM12.375 12.875V14.625H14.125V12.875H12.375Z" fill="var(--color-icon-fg)" />
</svg>
