<svg width="28" height="28" viewBox="0 0 20 20" fill="none" xmlns="http://www.w3.org/2000/svg">
  <path d="M0 10C0 4.47715 4.47715 0 10 0V0C15.5228 0 20 4.47715 20 10V10C20 15.5228 15.5228 20 10 20V20C4.47715 20 0 15.5228 0 10V10Z" fill="var(--color-icon-bg)" />
  <path fill-rule="evenodd" clip-rule="evenodd" d="M10 5.375C7.44568 5.375 5.375 7.44568 5.375 10C5.375 12.5543 7.44568 14.625 10 14.625C12.5543 14.625 14.625 12.5543 14.625 10C14.625 7.44568 12.5543 5.375 10 5.375ZM4.625 10C4.625 7.03147 7.03147 4.625 10 4.625C12.9685 4.625 15.375 7.03147 15.375 10C15.375 12.9685 12.9685 15.375 10 15.375C7.03147 15.375 4.625 12.9685 4.625 10ZM8.73483 7.23483L9.73484 6.23483C9.88128 6.08839 10.1187 6.08839 10.2652 6.23483L11.2652 7.23483C11.4116 7.38128 11.4116 7.61872 11.2652 7.76517C11.1187 7.91161 10.8813 7.91161 10.7348 7.76517L10.375 7.40533V8.75C10.375 8.95711 10.2071 9.125 10 9.125C9.79289 9.125 9.625 8.95711 9.625 8.75V7.40533L9.26516 7.76517C9.11872 7.91161 8.88128 7.91161 8.73483 7.76517C8.58839 7.61872 8.58839 7.38128 8.73483 7.23483ZM7.48483 8.73483C7.63128 8.58839 7.86872 8.58839 8.01517 8.73483L9.01516 9.73484C9.16161 9.88128 9.16161 10.1187 9.01516 10.2652L8.01517 11.2652C7.86872 11.4116 7.63128 11.4116 7.48483 11.2652C7.33839 11.1187 7.33839 10.8813 7.48483 10.7348L7.84467 10.375H6.5C6.29289 10.375 6.125 10.2071 6.125 10C6.125 9.79289 6.29289 9.625 6.5 9.625H7.84467L7.48483 9.26516C7.33839 9.11872 7.33839 8.88128 7.48483 8.73483ZM12.5152 8.73483C12.6616 8.88128 12.6616 9.11872 12.5152 9.26516L12.1553 9.625H13.5C13.7071 9.625 13.875 9.79289 13.875 10C13.875 10.2071 13.7071 10.375 13.5 10.375H12.1553L12.5152 10.7348C12.6616 10.8813 12.6616 11.1187 12.5152 11.2652C12.3687 11.4116 12.1313 11.4116 11.9848 11.2652L10.9848 10.2652C10.8384 10.1187 10.8384 9.88128 10.9848 9.73484L11.9848 8.73483C12.1313 8.58839 12.3687 8.58839 12.5152 8.73483ZM10 10.875C10.2071 10.875 10.375 11.0429 10.375 11.25V12.5947L10.7348 12.2348C10.8813 12.0884 11.1187 12.0884 11.2652 12.2348C11.4116 12.3813 11.4116 12.6187 11.2652 12.7652L10.2652 13.7652C10.1187 13.9116 9.88128 13.9116 9.73484 13.7652L8.73483 12.7652C8.58839 12.6187 8.58839 12.3813 8.73483 12.2348C8.88128 12.0884 9.11872 12.0884 9.26516 12.2348L9.625 12.5947V11.25C9.625 11.0429 9.79289 10.875 10 10.875Z" fill="var(--color-icon-fg)" />
</svg>
